<svg width="182" height="69" viewBox="0 0 182 69" fill="none" xmlns="http://www.w3.org/2000/svg">
<path d="M1.05762 52.7529C-0.132479 58.848 10.0479 58.4077 14.9017 60.8306C23.0721 64.9072 32.7134 66.7497 42.7843 67.7104C64.043 69.7459 85.9848 68.1432 108.611 61.9435C124.76 57.517 139.874 50.6687 152.982 40.0651C164.438 30.797 173.498 20.3337 179.753 8.61278C180.399 7.40104 180.896 6.15539 181.324 4.91896C181.584 4.16402 181.755 3.3359 181.624 2.65057C181.497 1.99794 181.337 1.01678 180.561 0.914248C179.785 0.811716 178.834 1.73171 178.227 2.3064C177.448 3.04341 176.899 3.93985 176.315 4.79052C173.311 9.17212 170.423 13.5994 167.314 17.9444C158.291 30.5647 145.827 40.1031 130.444 47.0248C116.654 53.2338 102.56 57.1591 88.2192 59.0937C70.8505 61.4373 54.0801 61.8093 38.3035 58.7167C28.49 56.7932 12.4432 48.496 12.4432 48.496C12.4432 48.496 11.7401 47.9979 11.2608 47.7474C6.99559 45.5179 1.97812 48.0386 1.05762 52.7529Z" fill="#04844C"/>
</svg>
